<svg width="62" height="64" viewBox="0 0 62 64" fill="none" xmlns="http://www.w3.org/2000/svg">
<g clip-path="url(#clip0_2634_264)">
<path d="M60 61.8125L50.6786 52.491M53.7857 42.3929C53.7857 49.6861 47.8735 55.5984 40.5803 55.5984C33.2872 55.5984 27.375 49.6861 27.375 42.3929C27.375 35.0998 33.2872 29.1875 40.5803 29.1875C47.8735 29.1875 53.7857 35.0998 53.7857 42.3929Z" stroke="#9995A6" stroke-width="2.71875" stroke-linecap="round" stroke-linejoin="round"/>
<path d="M43.6875 19.1654V6.90441C43.6875 4.19472 41.4928 2 38.7831 2H6.90441C4.19472 2 2 4.19472 2 6.90441V38.7831C2 41.4928 4.19472 43.6875 6.90441 43.6875H16.7132" stroke="#9995A6" stroke-width="2.71875" stroke-linecap="round" stroke-linejoin="round"/>
<path d="M8.36 8.00992C8.36 7.71593 8.45209 7.57675 8.51446 7.51441C8.57696 7.45194 8.71635 7.36 9.00992 7.36C9.30471 7.36 9.44384 7.45218 9.50585 7.51418C9.56784 7.57616 9.66 7.71522 9.66 8.00992C9.66 8.30463 9.56783 8.44376 9.50579 8.50579C9.44376 8.56783 9.30463 8.66 9.00992 8.66C8.71643 8.66 8.57705 8.56807 8.51452 8.50557C8.45209 8.44317 8.36 8.30393 8.36 8.00992Z" stroke="#9995A6" stroke-width="2.72" stroke-linecap="round" stroke-linejoin="round"/>
<path d="M15.38 7.99333C15.38 7.7037 15.4704 7.56948 15.5293 7.51074C15.5884 7.45179 15.725 7.36 16.02 7.36C16.303 7.36 16.4429 7.4495 16.5074 7.51352C16.5706 7.57615 16.66 7.71148 16.66 7.99333C16.66 8.27519 16.5706 8.41059 16.5074 8.47327C16.4428 8.53733 16.303 8.62682 16.02 8.62682C16.0221 8.62682 16.0232 8.62684 16.0232 8.62678C16.0232 8.62638 15.9771 8.62257 15.8931 8.58767C15.8022 8.54992 15.7029 8.49032 15.6145 8.41334C15.4333 8.25549 15.38 8.10636 15.38 7.99333Z" stroke="#9995A6" stroke-width="2.72" stroke-linecap="round" stroke-linejoin="round"/>
<path d="M22.38 8.01352C22.38 7.72247 22.471 7.58586 22.5318 7.52519C22.5926 7.46447 22.7313 7.37196 23.028 7.37196C23.3116 7.37196 23.4464 7.46131 23.5074 7.52254C23.5688 7.58415 23.66 7.72248 23.66 8.01352C23.66 8.30577 23.5685 8.44384 23.5076 8.50496C23.447 8.56581 23.3123 8.65523 23.028 8.65523C22.7306 8.65523 22.592 8.56265 22.5316 8.50231C22.4713 8.44214 22.38 8.30578 22.38 8.01352Z" stroke="#9995A6" stroke-width="2.72" stroke-linecap="round" stroke-linejoin="round"/>
<path d="M2.11328 14.2611H43.688" stroke="#9995A6" stroke-width="2.71875" stroke-linecap="round" stroke-linejoin="round"/>
<path d="M36.4375 38.25L45.5 47.3125" stroke="#F67ACB" stroke-width="2.71875" stroke-linecap="round" stroke-linejoin="round"/>
<path d="M45.5 38.25L36.4375 47.3125" stroke="#F67ACB" stroke-width="2.71875" stroke-linecap="round" stroke-linejoin="round"/>
</g>
<defs>
<clipPath id="clip0_2634_264">
<rect width="62" height="64" fill="white"/>
</clipPath>
</defs>
</svg>
