<svg width="456" height="680" viewBox="0 0 456 680" fill="none" xmlns="http://www.w3.org/2000/svg">
<path opacity="0.4" d="M34.9979 33C34.9979 30.7909 36.4819 30.0025 38.3125 31.2391L418.354 287.971C420.184 289.207 421.668 292.001 421.668 294.21V644.21C421.668 646.419 420.184 647.207 418.354 645.971L38.3125 389.239C36.4819 388.002 34.9979 385.209 34.9979 383V33Z" fill="#3F3D49"/>
<path opacity="0.2" d="M69.2662 4C69.2662 1.79086 70.7502 1.00248 72.5808 2.23911L452.622 258.971C454.453 260.207 455.937 263.001 455.937 265.21V615.21C455.937 617.419 454.453 618.207 452.622 616.971L72.5808 360.239C70.7502 359.002 69.2662 356.209 69.2662 354V4Z" fill="#3F3D49"/>
<path d="M2.26155 63.9999C2.27567 61.7908 3.77109 61.0025 5.60168 62.2391L385.643 318.971C387.474 320.207 388.946 323.001 388.932 325.21L386.696 675.198C386.682 677.407 385.186 678.195 383.356 676.959L3.31454 420.227C1.48395 418.99 0.0114025 416.197 0.0255162 413.988L2.26155 63.9999Z" fill="#3F3D49"/>
<path d="M2.26155 63.9999C2.27567 61.7908 3.77109 61.0025 5.60168 62.2391L385.643 318.971C387.474 320.207 388.946 323.001 388.932 325.21L388.804 345.209L2.13378 83.9992L2.26155 63.9999Z" fill="#1C1E2F"/>
<rect width="466.631" height="40.9995" transform="matrix(0.828643 0.559778 -0.00638877 0.99998 2.13379 83.9993)" fill="#111217"/>
<ellipse cx="2.07946" cy="2.49997" rx="2.07946" ry="2.49997" transform="matrix(0.828643 0.559778 -0.00638877 0.99998 13.9406 77.9151)" fill="#B84D4D"/>
<ellipse cx="2.07946" cy="2.49997" rx="2.07946" ry="2.49997" transform="matrix(0.828643 0.559778 -0.00638877 0.99998 24.2793 84.8993)" fill="#E3AA2F"/>
<ellipse cx="2.07946" cy="2.49997" rx="2.07946" ry="2.49997" transform="matrix(0.828643 0.559778 -0.00638877 0.99998 34.6182 91.8835)" fill="#2ACE43"/>
<path fill-rule="evenodd" clip-rule="evenodd" d="M80.8779 161.359L80.9486 150.297L82.2194 151.156L82.1487 162.217C82.1422 163.236 82.7059 164.445 83.4077 164.92L84.6785 165.778L84.6667 167.622L83.3959 166.763C81.9923 165.815 80.8649 163.395 80.8779 161.359Z" fill="white"/>
<path fill-rule="evenodd" clip-rule="evenodd" d="M84.7256 158.403L79.6425 154.97L79.6543 153.126L84.7374 156.56L84.7256 158.403Z" fill="white"/>
<path fill-rule="evenodd" clip-rule="evenodd" d="M45.2727 141.01L45.3669 126.26L46.6377 127.119L46.5435 141.868L45.2727 141.01Z" fill="white"/>
<path fill-rule="evenodd" clip-rule="evenodd" d="M46.5788 136.337C46.5658 138.373 47.6932 140.793 49.0968 141.741C50.5005 142.689 51.6489 141.807 51.6619 139.771C51.6749 137.734 50.5476 135.315 49.1439 134.367C47.7403 133.418 46.5918 134.301 46.5788 136.337ZM49.1557 132.523C47.0502 131.101 45.3276 132.424 45.308 135.479C45.2885 138.533 46.9796 142.163 49.085 143.585C51.1905 145.007 52.9132 143.684 52.9327 140.629C52.9522 137.575 51.2612 133.945 49.1557 132.523Z" fill="white"/>
<path fill-rule="evenodd" clip-rule="evenodd" d="M61.8517 142.951L58.0393 140.376C56.6357 139.428 55.4872 140.31 55.4742 142.346C55.4612 144.383 56.5885 146.802 57.9922 147.75L61.8045 150.326C63.2082 151.274 64.3566 150.392 64.3697 148.355C64.3827 146.319 63.2553 143.899 61.8517 142.951ZM58.0511 138.532C55.9456 137.11 54.2229 138.433 54.2034 141.488C54.1839 144.542 55.8749 148.172 57.9804 149.594L61.7928 152.169C63.8983 153.592 65.6209 152.268 65.6404 149.214C65.6599 146.159 63.9689 142.53 61.8634 141.108L58.0511 138.532Z" fill="url(#paint0_linear_2636_361)"/>
<path fill-rule="evenodd" clip-rule="evenodd" d="M65.664 145.527L61.8517 142.951C60.448 142.003 59.2996 142.885 59.2866 144.922C59.2736 146.958 60.4009 149.378 61.8046 150.326L65.6169 152.901C67.0206 153.849 68.169 152.967 68.182 150.931C68.195 148.894 67.0677 146.475 65.664 145.527ZM61.8635 141.108C59.758 139.685 58.0353 141.008 58.0158 144.063C57.9963 147.118 59.6873 150.747 61.7928 152.169L65.6051 154.745C67.7106 156.167 69.4333 154.844 69.4528 151.789C69.4723 148.735 67.7813 145.105 65.6758 143.683L61.8635 141.108Z" fill="white"/>
<path fill-rule="evenodd" clip-rule="evenodd" d="M70.8578 150.424C70.8692 148.642 71.8741 147.87 73.1023 148.7L77.6687 151.785L77.6569 153.628L73.0905 150.543C72.5641 150.188 72.1335 150.519 72.1286 151.282C72.1237 152.046 72.5465 152.953 73.0728 153.309L74.2991 154.137L74.2873 155.981L73.0611 155.153C71.8328 154.323 70.8464 152.206 70.8578 150.424Z" fill="white"/>
<path fill-rule="evenodd" clip-rule="evenodd" d="M77.9539 159.847C77.9653 158.065 76.9788 155.948 75.7506 155.118L73.9022 153.869L73.8904 155.713L75.7388 156.962C76.2652 157.317 76.688 158.224 76.6831 158.988C76.6782 159.752 76.2476 160.083 75.7212 159.727L70.9383 156.496L70.9265 158.34L75.7094 161.571C76.9376 162.4 77.9425 161.628 77.9539 159.847Z" fill="white"/>
<mask id="mask0_2636_361" style="mask-type:alpha" maskUnits="userSpaceOnUse" x="13" y="104" width="34" height="38">
<path d="M13.7681 104.914L46.5823 127.081L46.4886 141.744L13.6744 119.577L13.7681 104.914Z" fill="url(#paint1_linear_2636_361)"/>
</mask>
<g mask="url(#mask0_2636_361)">
<path fill-rule="evenodd" clip-rule="evenodd" d="M37.614 135.836L37.7083 121.087L36.8128 120.482L36.7185 135.231L37.614 135.836Z" fill="white"/>
<path fill-rule="evenodd" clip-rule="evenodd" d="M35.4901 125.09C34.9017 124.198 34.2109 123.555 33.5384 123.274C32.8658 122.993 32.2541 123.091 31.81 123.551C31.3659 124.011 31.1176 124.804 31.1085 125.791C31.0994 126.778 31.3299 127.898 31.76 128.953C32.19 130.009 32.7923 130.934 33.4616 131.568C34.1309 132.201 34.8248 132.502 35.4222 132.419C36.0197 132.335 36.4826 131.872 36.7304 131.11L37.5648 132.137C37.2407 133.133 36.6353 133.738 35.8541 133.848C35.0728 133.957 34.1654 133.563 33.2901 132.735C32.4149 131.907 31.6274 130.697 31.065 129.316C30.5026 127.935 30.2011 126.472 30.213 125.181C30.225 123.889 30.5496 122.853 31.1304 122.251C31.7111 121.65 32.511 121.522 33.3905 121.889C34.2701 122.257 35.1734 123.098 35.9428 124.264C36.7122 125.43 37.2989 126.848 37.6006 128.27L36.7578 128.154C36.5271 127.066 36.0785 125.982 35.4901 125.09Z" fill="white"/>
<path fill-rule="evenodd" clip-rule="evenodd" d="M25.2919 126.213C26.8993 127.299 28.2144 126.289 28.2293 123.957C28.2442 121.625 26.9532 118.854 25.3459 117.768C23.7385 116.682 22.4234 117.693 22.4085 120.025C22.3936 122.357 23.6845 125.127 25.2919 126.213ZM25.2836 127.512C27.3856 128.932 29.1053 127.611 29.1248 124.562C29.1443 121.512 27.4561 117.889 25.3542 116.469C23.2522 115.049 21.5324 116.37 21.5129 119.42C21.4935 122.469 23.1816 126.092 25.2836 127.512Z" fill="white"/>
<path fill-rule="evenodd" clip-rule="evenodd" d="M18.4058 113.08C17.8761 112.714 17.3535 112.563 16.8944 112.644C16.4353 112.726 16.057 113.036 15.8004 113.541C15.5438 114.046 15.4185 114.728 15.4382 115.512C15.4578 116.297 15.6216 117.154 15.9118 117.992C16.2021 118.83 16.6078 119.616 17.0852 120.267C17.5627 120.918 18.0937 121.408 18.6212 121.684C19.1486 121.96 19.6524 122.013 20.0782 121.835L20.611 123.237C20.0541 123.469 19.3953 123.4 18.7056 123.039C18.0159 122.677 17.3214 122.037 16.6971 121.186C16.0727 120.335 15.5422 119.306 15.1626 118.211C14.7831 117.115 14.5689 115.994 14.5432 114.968C14.5175 113.942 14.6813 113.051 15.0169 112.39C15.3525 111.729 15.8471 111.324 16.4475 111.218C17.0479 111.112 17.7313 111.309 18.424 111.788C19.1166 112.267 19.7923 113.01 20.3782 113.936L19.9002 114.723C19.4522 114.015 18.9355 113.447 18.4058 113.08Z" fill="white"/>
<path fill-rule="evenodd" clip-rule="evenodd" d="M43.5256 138.027C42.9649 137.957 42.3546 137.543 41.7984 136.856C41.2411 136.168 40.7649 135.238 40.463 134.219C40.2251 133.416 40.1099 132.605 40.1286 131.879L46.1843 135.97L46.106 135.161C45.9788 133.848 45.5706 132.459 44.9554 131.239C44.3404 130.02 43.5578 129.048 42.7458 128.491C41.9338 127.935 41.142 127.828 40.51 128.192C39.8779 128.557 39.4461 129.37 39.2927 130.49C39.1393 131.611 39.2747 132.966 39.674 134.314C40.0732 135.661 40.7101 136.914 41.4707 137.853C42.2312 138.793 43.0682 139.36 43.835 139.456C44.6019 139.553 45.251 139.172 45.6663 138.377L44.8866 137.218C44.5727 137.82 44.0875 138.098 43.5256 138.027ZM40.306 130.694C40.4706 130.158 40.7413 129.771 41.0901 129.57C41.5597 129.299 42.1411 129.382 42.7314 129.786C43.3217 130.191 43.8968 130.902 44.354 131.808C44.6851 132.464 44.9392 133.194 45.0914 133.927L40.306 130.694Z" fill="white"/>
</g>
<rect x="0.411127" y="0.779879" width="107.964" height="15.9998" rx="1.5" transform="matrix(0.828643 0.559778 -0.00638877 0.99998 286.8 287.067)" stroke="#9995A6" stroke-opacity="0.36"/>
<path d="M365.293 341.378C365.296 340.825 365.67 340.628 366.128 340.937L376.188 347.733C376.646 348.042 377.014 348.741 377.01 349.293L376.914 364.293C376.911 364.845 376.537 365.042 376.079 364.733L366.019 357.937C365.562 357.628 365.194 356.929 365.197 356.377L365.293 341.378Z" fill="#F67ACB"/>
<path d="M291.928 301.86L291.957 297.387L293.209 298.233C293.5 298.43 293.737 298.653 293.921 298.905C294.106 299.156 294.242 299.418 294.33 299.692C294.418 299.967 294.461 300.236 294.459 300.499C294.458 300.763 294.411 300.972 294.321 301.127C294.231 301.283 294.094 301.363 293.909 301.366C293.723 301.368 293.486 301.272 293.198 301.077L292.3 300.471L292.303 299.99L293.187 300.587C293.386 300.721 293.546 300.788 293.667 300.786C293.788 300.785 293.876 300.732 293.931 300.627C293.988 300.522 294.017 300.38 294.018 300.201C294.019 300.022 293.992 299.843 293.938 299.664C293.884 299.486 293.797 299.316 293.676 299.154C293.554 298.99 293.393 298.84 293.191 298.704L292.402 298.171L292.377 302.163L291.928 301.86Z" fill="white" fill-opacity="0.85"/>
<path d="M296.24 304.843C295.972 304.662 295.742 304.435 295.548 304.161C295.356 303.886 295.208 303.585 295.105 303.256C295.003 302.927 294.953 302.59 294.955 302.247C294.957 301.903 295.011 301.635 295.117 301.443C295.223 301.251 295.371 301.144 295.559 301.123C295.748 301.102 295.968 301.176 296.219 301.346C296.364 301.443 296.506 301.569 296.647 301.723C296.788 301.876 296.916 302.058 297.031 302.267C297.146 302.475 297.237 302.709 297.304 302.969C297.372 303.23 297.404 303.517 297.402 303.83L297.401 304.048L295.258 302.601L295.261 302.155L296.97 303.309C296.971 303.12 296.94 302.93 296.879 302.739C296.818 302.549 296.731 302.372 296.617 302.209C296.504 302.046 296.37 301.913 296.216 301.809C296.046 301.694 295.898 301.645 295.773 301.663C295.65 301.68 295.554 301.748 295.487 301.864C295.419 301.981 295.385 302.132 295.384 302.317L295.382 302.614C295.38 302.867 295.415 303.106 295.486 303.331C295.559 303.556 295.66 303.758 295.79 303.938C295.919 304.116 296.07 304.263 296.243 304.38C296.355 304.456 296.457 304.505 296.547 304.529C296.639 304.551 296.719 304.546 296.786 304.514C296.852 304.48 296.904 304.417 296.941 304.325L297.353 304.744C297.308 304.883 297.235 304.983 297.131 305.041C297.028 305.099 296.9 305.112 296.749 305.082C296.598 305.05 296.428 304.97 296.24 304.843Z" fill="white" fill-opacity="0.85"/>
<path d="M300.027 304.716L299.642 304.588C299.619 304.495 299.583 304.396 299.537 304.291C299.492 304.186 299.429 304.082 299.35 303.981C299.271 303.879 299.169 303.786 299.044 303.702C298.874 303.587 298.732 303.539 298.618 303.557C298.506 303.574 298.449 303.655 298.448 303.799C298.447 303.927 298.485 304.054 298.562 304.181C298.638 304.307 298.759 304.45 298.922 304.611L299.334 305.012C299.582 305.253 299.767 305.489 299.888 305.721C300.009 305.952 300.068 306.185 300.067 306.419C300.066 306.611 300.019 306.752 299.926 306.842C299.834 306.932 299.707 306.966 299.544 306.943C299.38 306.92 299.19 306.836 298.975 306.69C298.691 306.499 298.457 306.266 298.272 305.992C298.087 305.718 297.971 305.421 297.923 305.103L298.329 305.254C298.367 305.461 298.439 305.646 298.546 305.808C298.654 305.972 298.795 306.113 298.97 306.231C299.169 306.366 299.328 306.421 299.445 306.398C299.564 306.375 299.624 306.291 299.625 306.147C299.626 306.031 299.593 305.91 299.526 305.786C299.458 305.66 299.355 305.53 299.215 305.397L298.753 304.953C298.499 304.708 298.313 304.469 298.194 304.235C298.077 304.001 298.019 303.768 298.02 303.537C298.022 303.347 298.067 303.21 298.156 303.123C298.246 303.038 298.368 303.006 298.522 303.026C298.677 303.048 298.852 303.124 299.047 303.256C299.322 303.442 299.538 303.661 299.694 303.912C299.851 304.165 299.962 304.433 300.027 304.716Z" fill="white" fill-opacity="0.85"/>
<path d="M302.592 310.327L302.604 308.554L302.567 308.529C302.536 308.569 302.49 308.616 302.432 308.671C302.373 308.723 302.29 308.75 302.182 308.75C302.075 308.749 301.931 308.688 301.753 308.567C301.521 308.411 301.317 308.202 301.141 307.941C300.964 307.678 300.827 307.384 300.728 307.057C300.63 306.729 300.582 306.387 300.584 306.032C300.586 305.679 300.638 305.407 300.74 305.216C300.842 305.024 300.983 304.918 301.162 304.898C301.341 304.877 301.548 304.946 301.782 305.104C301.963 305.226 302.106 305.359 302.21 305.503C302.316 305.646 302.396 305.782 302.451 305.911C302.508 306.04 302.551 306.144 302.582 306.223L302.633 306.258L302.636 305.725L303.049 306.003L303.019 310.616L302.592 310.327ZM301.814 308.143C301.985 308.259 302.13 308.303 302.249 308.275C302.368 308.246 302.459 308.156 302.522 308.005C302.584 307.853 302.617 307.65 302.618 307.397C302.62 307.147 302.591 306.907 302.532 306.679C302.473 306.448 302.384 306.241 302.267 306.056C302.149 305.87 302.004 305.719 301.83 305.601C301.649 305.479 301.498 305.433 301.376 305.464C301.256 305.494 301.165 305.584 301.104 305.734C301.044 305.883 301.013 306.076 301.011 306.311C301.01 306.55 301.038 306.787 301.098 307.023C301.158 307.259 301.247 307.474 301.366 307.67C301.486 307.865 301.635 308.023 301.814 308.143Z" fill="white" fill-opacity="0.85"/>
<path d="M305.57 309.698L305.582 307.715L306.009 308.003L305.988 311.358L305.561 311.069L305.565 310.502L305.536 310.482C305.469 310.608 305.367 310.685 305.229 310.711C305.091 310.736 304.916 310.678 304.706 310.536C304.533 310.419 304.379 310.268 304.244 310.085C304.11 309.901 304.004 309.69 303.928 309.451C303.852 309.211 303.815 308.948 303.817 308.663L303.831 306.532L304.258 306.82L304.244 308.917C304.243 309.161 304.298 309.395 304.411 309.617C304.524 309.84 304.67 310.011 304.847 310.131C304.953 310.203 305.062 310.243 305.172 310.252C305.283 310.261 305.377 310.223 305.452 310.138C305.529 310.054 305.568 309.908 305.57 309.698Z" fill="white" fill-opacity="0.85"/>
<path d="M306.77 311.886L306.792 308.532L307.219 308.82L307.197 312.175L306.77 311.886ZM307.012 308.119C306.929 308.063 306.858 307.981 306.798 307.871C306.739 307.763 306.71 307.661 306.711 307.565C306.711 307.469 306.741 307.406 306.801 307.378C306.862 307.35 306.934 307.364 307.017 307.421C307.1 307.477 307.171 307.559 307.23 307.668C307.29 307.777 307.319 307.879 307.319 307.975C307.318 308.072 307.287 308.133 307.227 308.161C307.167 308.19 307.096 308.176 307.012 308.119Z" fill="white" fill-opacity="0.85"/>
<path d="M309.965 311.43L309.581 311.302C309.557 311.209 309.522 311.11 309.475 311.005C309.43 310.9 309.368 310.796 309.288 310.694C309.209 310.593 309.107 310.5 308.983 310.416C308.813 310.301 308.671 310.252 308.557 310.27C308.444 310.288 308.387 310.369 308.386 310.513C308.385 310.641 308.423 310.768 308.5 310.894C308.577 311.021 308.697 311.164 308.861 311.325L309.273 311.726C309.521 311.966 309.705 312.203 309.826 312.435C309.947 312.666 310.007 312.899 310.005 313.133C310.004 313.325 309.957 313.466 309.864 313.555C309.773 313.646 309.646 313.68 309.482 313.657C309.319 313.634 309.129 313.55 308.913 313.404C308.629 313.212 308.395 312.98 308.21 312.706C308.026 312.432 307.909 312.135 307.862 311.816L308.268 311.968C308.305 312.175 308.377 312.359 308.484 312.522C308.592 312.686 308.734 312.827 308.909 312.945C309.108 313.079 309.266 313.135 309.384 313.112C309.503 313.089 309.563 313.005 309.564 312.861C309.564 312.744 309.531 312.624 309.464 312.5C309.397 312.374 309.294 312.244 309.154 312.11L308.691 311.666C308.437 311.422 308.251 311.182 308.133 310.949C308.015 310.715 307.957 310.482 307.959 310.25C307.96 310.061 308.005 309.923 308.094 309.837C308.184 309.752 308.306 309.72 308.46 309.74C308.615 309.761 308.79 309.838 308.986 309.97C309.261 310.156 309.476 310.375 309.632 310.626C309.789 310.879 309.9 311.147 309.965 311.43Z" fill="white" fill-opacity="0.85"/>
<path d="M311.807 315.359C311.539 315.178 311.309 314.951 311.115 314.677C310.923 314.402 310.776 314.101 310.672 313.772C310.57 313.443 310.52 313.106 310.522 312.763C310.525 312.419 310.578 312.151 310.684 311.96C310.791 311.767 310.938 311.66 311.126 311.64C311.315 311.618 311.535 311.692 311.786 311.862C311.931 311.96 312.073 312.085 312.214 312.239C312.355 312.392 312.483 312.574 312.598 312.783C312.713 312.991 312.804 313.225 312.871 313.486C312.939 313.746 312.972 314.033 312.97 314.346L312.968 314.564L310.826 313.117L310.828 312.671L312.537 313.825C312.538 313.636 312.508 313.446 312.446 313.255C312.385 313.065 312.298 312.888 312.184 312.725C312.071 312.562 311.937 312.429 311.783 312.325C311.613 312.21 311.465 312.161 311.34 312.179C311.217 312.197 311.121 312.264 311.054 312.38C310.986 312.497 310.952 312.648 310.951 312.833L310.949 313.13C310.947 313.383 310.982 313.623 311.053 313.848C311.126 314.072 311.227 314.274 311.357 314.454C311.486 314.632 311.638 314.78 311.81 314.896C311.922 314.972 312.024 315.021 312.115 315.045C312.206 315.067 312.286 315.063 312.353 315.03C312.42 314.996 312.471 314.933 312.508 314.841L312.92 315.26C312.876 315.4 312.802 315.499 312.698 315.558C312.595 315.615 312.468 315.628 312.316 315.598C312.165 315.566 311.995 315.486 311.807 315.359Z" fill="white" fill-opacity="0.85"/>
<path d="M315.034 318.732L315.063 314.119L315.476 314.398L315.472 314.931L315.523 314.965C315.555 314.928 315.599 314.883 315.655 314.831C315.712 314.777 315.793 314.75 315.899 314.75C316.005 314.749 316.149 314.809 316.33 314.932C316.564 315.09 316.77 315.3 316.948 315.561C317.125 315.823 317.263 316.118 317.362 316.444C317.46 316.771 317.508 317.111 317.506 317.463C317.504 317.818 317.452 318.092 317.35 318.285C317.248 318.477 317.108 318.584 316.93 318.607C316.752 318.628 316.547 318.561 316.315 318.404C316.137 318.284 315.994 318.152 315.887 318.008C315.78 317.862 315.698 317.724 315.641 317.593C315.583 317.461 315.539 317.354 315.508 317.271L315.472 317.247L315.461 319.02L315.034 318.732ZM315.472 316.08C315.471 316.334 315.5 316.578 315.56 316.813C315.62 317.047 315.709 317.258 315.827 317.447C315.944 317.635 316.089 317.787 316.26 317.902C316.439 318.023 316.588 318.067 316.708 318.034C316.83 318 316.921 317.907 316.983 317.754C317.046 317.601 317.078 317.405 317.079 317.166C317.081 316.93 317.052 316.697 316.993 316.467C316.935 316.236 316.846 316.025 316.726 315.833C316.607 315.64 316.457 315.483 316.276 315.36C316.103 315.243 315.956 315.197 315.837 315.224C315.719 315.249 315.628 315.336 315.567 315.484C315.505 315.631 315.474 315.83 315.472 316.08Z" fill="white" fill-opacity="0.85"/>
<path d="M319.276 320.404C319.025 320.235 318.805 320.014 318.617 319.742C318.429 319.471 318.284 319.17 318.179 318.839C318.076 318.509 318.025 318.17 318.027 317.824C318.03 317.475 318.084 317.205 318.191 317.015C318.298 316.826 318.447 316.723 318.636 316.706C318.826 316.69 319.047 316.767 319.298 316.936C319.549 317.106 319.768 317.326 319.955 317.598C320.144 317.87 320.29 318.172 320.393 318.503C320.498 318.835 320.549 319.176 320.546 319.526C320.544 319.872 320.489 320.139 320.381 320.327C320.275 320.515 320.126 320.617 319.936 320.633C319.747 320.65 319.527 320.574 319.276 320.404ZM319.279 319.942C319.469 320.07 319.627 320.117 319.75 320.082C319.874 320.048 319.966 319.954 320.027 319.802C320.087 319.65 320.118 319.461 320.119 319.237C320.121 319.013 320.093 318.784 320.035 318.551C319.977 318.317 319.887 318.099 319.764 317.896C319.642 317.694 319.486 317.528 319.295 317.399C319.104 317.271 318.947 317.224 318.823 317.261C318.7 317.297 318.607 317.392 318.547 317.546C318.487 317.699 318.456 317.888 318.454 318.112C318.453 318.337 318.481 318.565 318.539 318.797C318.597 319.029 318.687 319.246 318.809 319.447C318.932 319.648 319.088 319.813 319.279 319.942Z" fill="white" fill-opacity="0.85"/>
<path d="M321.188 321.626L321.209 318.271L321.622 318.55L321.619 319.057L321.648 319.076C321.699 318.945 321.792 318.872 321.925 318.858C322.059 318.844 322.209 318.894 322.375 319.006C322.406 319.028 322.446 319.055 322.493 319.088C322.54 319.121 322.575 319.147 322.599 319.167L322.596 319.691C322.582 319.677 322.548 319.648 322.497 319.604C322.446 319.559 322.392 319.518 322.336 319.48C322.201 319.389 322.08 319.341 321.973 319.338C321.868 319.334 321.784 319.371 321.722 319.449C321.66 319.526 321.629 319.64 321.628 319.792L321.615 321.914L321.188 321.626Z" fill="white" fill-opacity="0.85"/>
<path d="M325.335 324.506C325.159 324.387 324.999 324.239 324.856 324.062C324.713 323.884 324.6 323.689 324.516 323.479C324.433 323.268 324.392 323.053 324.393 322.835C324.394 322.643 324.427 322.508 324.49 322.431C324.554 322.353 324.638 322.315 324.743 322.317C324.849 322.32 324.965 322.347 325.092 322.399C325.22 322.45 325.349 322.51 325.478 322.576C325.647 322.664 325.784 322.737 325.889 322.795C325.995 322.852 326.073 322.88 326.121 322.879C326.171 322.879 326.196 322.838 326.197 322.755L326.197 322.737C326.198 322.522 326.15 322.321 326.053 322.136C325.958 321.951 325.811 321.793 325.615 321.66C325.411 321.522 325.251 321.468 325.134 321.497C325.018 321.527 324.935 321.587 324.888 321.677L324.483 321.229C324.557 321.074 324.654 320.98 324.776 320.948C324.898 320.916 325.032 320.925 325.176 320.977C325.321 321.028 325.463 321.101 325.603 321.196C325.692 321.256 325.795 321.338 325.91 321.443C326.027 321.547 326.14 321.675 326.248 321.827C326.357 321.979 326.448 322.16 326.519 322.367C326.59 322.575 326.625 322.812 326.623 323.078L326.609 325.288L326.182 325L326.185 324.546L326.163 324.531C326.134 324.584 326.085 324.629 326.017 324.667C325.949 324.704 325.859 324.714 325.746 324.696C325.634 324.679 325.496 324.615 325.335 324.506ZM325.403 324.087C325.572 324.201 325.714 324.258 325.831 324.256C325.948 324.255 326.037 324.211 326.097 324.124C326.158 324.038 326.189 323.925 326.19 323.786L326.193 323.314C326.175 323.328 326.135 323.325 326.073 323.305C326.013 323.285 325.943 323.256 325.863 323.218C325.784 323.18 325.708 323.141 325.633 323.102C325.559 323.062 325.499 323.031 325.453 323.007C325.342 322.95 325.238 322.908 325.142 322.882C325.046 322.856 324.968 322.861 324.909 322.898C324.85 322.935 324.821 323.019 324.82 323.15C324.819 323.329 324.873 323.501 324.982 323.667C325.092 323.832 325.233 323.972 325.403 324.087Z" fill="white" fill-opacity="0.85"/>
<path d="M327.389 325.815L327.41 322.46L327.823 322.739L327.82 323.246L327.849 323.265C327.9 323.134 327.993 323.061 328.126 323.047C328.26 323.033 328.41 323.083 328.576 323.195C328.607 323.216 328.647 323.244 328.694 323.277C328.741 323.31 328.776 323.336 328.8 323.356L328.797 323.88C328.783 323.866 328.749 323.837 328.698 323.793C328.647 323.748 328.593 323.707 328.537 323.669C328.402 323.578 328.281 323.53 328.174 323.527C328.069 323.523 327.985 323.56 327.923 323.638C327.861 323.715 327.83 323.829 327.829 323.981L327.816 326.103L327.389 325.815Z" fill="white" fill-opacity="0.85"/>
<path d="M330.689 324.676L330.687 325.112L329.246 324.139L329.249 323.703L330.689 324.676ZM329.674 323.182L330.101 323.471L330.081 326.668C330.08 326.814 330.096 326.935 330.131 327.031C330.167 327.127 330.212 327.206 330.268 327.268C330.324 327.33 330.384 327.382 330.447 327.424C330.494 327.456 330.532 327.479 330.562 327.494C330.593 327.507 330.617 327.517 330.635 327.525L330.719 328.047C330.69 328.04 330.649 328.026 330.597 328.004C330.545 327.984 330.48 327.947 330.4 327.893C330.279 327.811 330.161 327.7 330.046 327.559C329.932 327.419 329.837 327.26 329.762 327.08C329.688 326.901 329.651 326.715 329.653 326.519L329.674 323.182Z" fill="white" fill-opacity="0.85"/>
<path d="M331.31 328.464L331.332 325.11L331.759 325.398L331.738 328.753L331.31 328.464ZM331.553 324.697C331.469 324.641 331.398 324.558 331.338 324.449C331.279 324.341 331.25 324.239 331.251 324.142C331.251 324.046 331.282 323.984 331.341 323.956C331.402 323.928 331.474 323.942 331.557 323.998C331.64 324.055 331.711 324.137 331.77 324.245C331.83 324.354 331.86 324.457 331.859 324.553C331.858 324.649 331.828 324.711 331.767 324.739C331.707 324.767 331.636 324.753 331.553 324.697Z" fill="white" fill-opacity="0.85"/>
<path d="M333.633 331.367C333.427 331.227 333.25 331.076 333.102 330.911C332.954 330.748 332.831 330.582 332.732 330.412C332.635 330.244 332.558 330.082 332.501 329.926L332.843 329.868C332.881 329.955 332.93 330.058 332.988 330.177C333.047 330.297 333.127 330.42 333.23 330.548C333.333 330.678 333.469 330.799 333.636 330.913C333.861 331.064 334.046 331.124 334.193 331.091C334.34 331.059 334.414 330.903 334.416 330.623L334.42 329.942L334.384 329.918C334.352 329.958 334.307 330.003 334.249 330.054C334.192 330.105 334.109 330.129 334.001 330.126C333.895 330.123 333.751 330.06 333.57 329.938C333.345 329.786 333.144 329.586 332.967 329.337C332.79 329.089 332.651 328.808 332.548 328.493C332.447 328.179 332.398 327.848 332.4 327.498C332.403 327.155 332.455 326.889 332.556 326.702C332.658 326.514 332.799 326.41 332.978 326.391C333.158 326.37 333.364 326.439 333.598 326.597C333.779 326.719 333.923 326.852 334.028 326.997C334.135 327.141 334.217 327.278 334.273 327.408C334.33 327.537 334.374 327.642 334.405 327.721L334.449 327.75L334.452 327.218L334.865 327.496L334.843 330.947C334.841 331.235 334.785 331.433 334.675 331.54C334.567 331.65 334.421 331.685 334.239 331.646C334.057 331.61 333.855 331.517 333.633 331.367ZM333.631 329.514C333.802 329.63 333.947 329.68 334.066 329.665C334.185 329.651 334.275 329.575 334.338 329.439C334.401 329.303 334.433 329.111 334.435 328.864C334.436 328.622 334.407 328.388 334.348 328.163C334.289 327.937 334.201 327.732 334.083 327.547C333.965 327.362 333.82 327.211 333.646 327.094C333.465 326.972 333.314 326.925 333.193 326.954C333.072 326.984 332.982 327.072 332.92 327.218C332.86 327.364 332.829 327.551 332.827 327.778C332.826 328.011 332.855 328.237 332.914 328.457C332.974 328.676 333.064 328.877 333.183 329.06C333.303 329.242 333.452 329.393 333.631 329.514Z" fill="white" fill-opacity="0.85"/>
<path d="M336.754 332.212C336.503 332.042 336.283 331.821 336.095 331.549C335.908 331.278 335.762 330.977 335.657 330.646C335.554 330.316 335.503 329.978 335.506 329.631C335.508 329.282 335.562 329.012 335.669 328.822C335.777 328.634 335.925 328.531 336.114 328.514C336.305 328.497 336.525 328.574 336.776 328.744C337.027 328.913 337.246 329.134 337.434 329.405C337.622 329.677 337.768 329.979 337.871 330.31C337.976 330.643 338.027 330.983 338.025 331.333C338.022 331.679 337.967 331.946 337.86 332.134C337.753 332.322 337.605 332.424 337.414 332.44C337.225 332.457 337.005 332.381 336.754 332.212ZM336.757 331.749C336.948 331.877 337.105 331.924 337.229 331.89C337.353 331.855 337.445 331.761 337.505 331.609C337.565 331.457 337.596 331.269 337.598 331.044C337.599 330.82 337.571 330.591 337.513 330.358C337.455 330.124 337.365 329.906 337.243 329.704C337.12 329.501 336.964 329.335 336.773 329.207C336.583 329.078 336.425 329.032 336.302 329.068C336.178 329.104 336.086 329.199 336.025 329.353C335.965 329.506 335.934 329.695 335.933 329.92C335.931 330.144 335.959 330.372 336.017 330.604C336.075 330.836 336.165 331.053 336.288 331.254C336.41 331.455 336.566 331.62 336.757 331.749Z" fill="white" fill-opacity="0.85"/>
<path d="M341.228 335.234C340.977 335.065 340.757 334.844 340.569 334.572C340.382 334.3 340.236 333.999 340.131 333.668C340.028 333.338 339.977 333 339.98 332.654C339.982 332.304 340.036 332.035 340.143 331.845C340.251 331.656 340.399 331.553 340.588 331.536C340.779 331.52 340.999 331.596 341.25 331.766C341.501 331.936 341.72 332.156 341.908 332.427C342.096 332.699 342.242 333.001 342.345 333.333C342.45 333.665 342.501 334.006 342.499 334.355C342.497 334.702 342.442 334.969 342.334 335.156C342.227 335.344 342.079 335.447 341.888 335.463C341.699 335.48 341.479 335.404 341.228 335.234ZM341.231 334.771C341.422 334.9 341.579 334.947 341.703 334.912C341.827 334.877 341.919 334.784 341.979 334.631C342.039 334.479 342.07 334.291 342.072 334.067C342.073 333.843 342.045 333.614 341.987 333.38C341.929 333.146 341.839 332.928 341.717 332.726C341.594 332.523 341.438 332.358 341.247 332.229C341.057 332.1 340.899 332.054 340.776 332.09C340.652 332.126 340.56 332.221 340.499 332.375C340.439 332.529 340.408 332.718 340.407 332.942C340.405 333.166 340.434 333.394 340.491 333.627C340.549 333.859 340.639 334.075 340.762 334.276C340.884 334.477 341.04 334.642 341.231 334.771Z" fill="white" fill-opacity="0.85"/>
<path d="M344.901 336.267L344.913 334.284L345.34 334.573L345.319 337.927L344.892 337.639L344.896 337.071L344.867 337.051C344.8 337.178 344.698 337.254 344.56 337.281C344.421 337.306 344.247 337.247 344.037 337.106C343.864 336.988 343.71 336.838 343.575 336.655C343.441 336.47 343.335 336.259 343.259 336.02C343.183 335.781 343.146 335.518 343.148 335.232L343.162 333.101L343.589 333.389L343.575 335.486C343.574 335.731 343.629 335.964 343.742 336.186C343.855 336.409 344.001 336.581 344.178 336.7C344.284 336.772 344.393 336.812 344.503 336.821C344.614 336.831 344.708 336.793 344.783 336.708C344.86 336.624 344.899 336.477 344.901 336.267Z" fill="white" fill-opacity="0.85"/>
<path d="M348.765 336.886L348.762 337.323L347.322 336.35L347.324 335.913L348.765 336.886ZM347.749 335.393L348.176 335.682L348.156 338.879C348.155 339.024 348.172 339.145 348.206 339.242C348.242 339.338 348.288 339.417 348.343 339.479C348.4 339.54 348.459 339.592 348.522 339.635C348.569 339.667 348.608 339.69 348.638 339.704C348.668 339.717 348.692 339.728 348.71 339.736L348.794 340.257C348.765 340.251 348.725 340.237 348.673 340.215C348.621 340.194 348.555 340.157 348.475 340.103C348.355 340.022 348.237 339.911 348.121 339.77C348.007 339.63 347.912 339.47 347.837 339.291C347.763 339.112 347.727 338.925 347.728 338.73L347.749 335.393Z" fill="white" fill-opacity="0.85"/>
<path d="M350.521 341.512C350.253 341.331 350.023 341.103 349.829 340.829C349.637 340.555 349.489 340.253 349.386 339.925C349.284 339.595 349.234 339.259 349.236 338.915C349.238 338.572 349.292 338.304 349.398 338.112C349.504 337.919 349.652 337.813 349.84 337.792C350.029 337.771 350.249 337.845 350.5 338.014C350.645 338.112 350.787 338.238 350.928 338.391C351.069 338.545 351.197 338.726 351.312 338.936C351.427 339.144 351.518 339.378 351.585 339.638C351.653 339.899 351.685 340.185 351.683 340.498L351.682 340.717L349.539 339.269L349.542 338.824L351.251 339.978C351.252 339.789 351.221 339.599 351.16 339.408C351.099 339.218 351.012 339.041 350.898 338.878C350.785 338.715 350.651 338.582 350.497 338.477C350.327 338.362 350.179 338.314 350.054 338.332C349.931 338.349 349.835 338.416 349.768 338.533C349.7 338.65 349.666 338.801 349.665 338.986L349.663 339.283C349.661 339.536 349.696 339.775 349.767 340C349.84 340.225 349.941 340.427 350.071 340.606C350.2 340.785 350.351 340.932 350.524 341.049C350.636 341.125 350.738 341.174 350.828 341.197C350.92 341.22 351 341.215 351.067 341.183C351.133 341.149 351.185 341.086 351.222 340.994L351.634 341.413C351.589 341.552 351.516 341.651 351.412 341.71C351.309 341.768 351.181 341.781 351.03 341.75C350.879 341.718 350.709 341.639 350.521 341.512Z" fill="white" fill-opacity="0.85"/>
<path d="M352.322 342.658L352.344 339.304L352.756 339.583L352.753 340.107L352.789 340.131C352.848 339.991 352.942 339.915 353.072 339.903C353.202 339.89 353.357 339.945 353.538 340.067C353.722 340.191 353.874 340.344 353.995 340.527C354.118 340.709 354.213 340.913 354.28 341.138L354.309 341.158C354.381 341.033 354.489 340.967 354.632 340.962C354.775 340.954 354.946 341.018 355.145 341.153C355.394 341.32 355.597 341.552 355.753 341.846C355.91 342.139 355.987 342.483 355.985 342.878L355.971 345.123L355.543 344.834L355.558 342.589C355.559 342.342 355.504 342.127 355.393 341.945C355.281 341.763 355.15 341.62 354.998 341.518C354.802 341.386 354.65 341.355 354.542 341.425C354.434 341.494 354.379 341.636 354.377 341.853L354.363 344.037L353.929 343.744L353.944 341.446C353.945 341.256 353.895 341.067 353.793 340.882C353.691 340.694 353.559 340.546 353.398 340.437C353.287 340.362 353.183 340.328 353.086 340.334C352.99 340.341 352.912 340.388 352.852 340.474C352.794 340.56 352.764 340.686 352.763 340.85L352.749 342.947L352.322 342.658Z" fill="white" fill-opacity="0.85"/>
<path d="M357.569 346.282C357.393 346.163 357.233 346.015 357.09 345.837C356.947 345.659 356.834 345.465 356.75 345.255C356.667 345.043 356.626 344.829 356.627 344.61C356.628 344.418 356.661 344.283 356.724 344.206C356.788 344.128 356.872 344.09 356.978 344.092C357.083 344.095 357.199 344.122 357.326 344.174C357.454 344.226 357.583 344.285 357.712 344.352C357.881 344.44 358.018 344.512 358.123 344.57C358.23 344.627 358.307 344.656 358.355 344.655C358.405 344.655 358.43 344.613 358.431 344.53L358.431 344.513C358.432 344.297 358.384 344.097 358.287 343.911C358.192 343.727 358.045 343.568 357.849 343.435C357.645 343.297 357.485 343.243 357.368 343.273C357.252 343.302 357.17 343.362 357.122 343.453L356.717 343.004C356.791 342.849 356.889 342.756 357.01 342.724C357.133 342.691 357.266 342.701 357.41 342.752C357.555 342.804 357.697 342.877 357.837 342.971C357.927 343.031 358.029 343.114 358.145 343.218C358.262 343.322 358.374 343.45 358.482 343.602C358.591 343.755 358.682 343.935 358.753 344.142C358.824 344.35 358.859 344.587 358.858 344.854L358.843 347.064L358.416 346.775L358.419 346.321L358.398 346.306C358.368 346.359 358.319 346.405 358.251 346.442C358.183 346.479 358.093 346.489 357.98 346.472C357.868 346.454 357.731 346.391 357.569 346.282ZM357.637 345.863C357.806 345.977 357.949 346.033 358.065 346.031C358.182 346.03 358.271 345.986 358.331 345.899C358.392 345.813 358.423 345.701 358.424 345.561L358.427 345.089C358.409 345.103 358.369 345.1 358.307 345.081C358.247 345.06 358.177 345.031 358.097 344.993C358.018 344.955 357.942 344.916 357.867 344.877C357.793 344.838 357.733 344.806 357.688 344.783C357.576 344.725 357.472 344.683 357.376 344.657C357.28 344.631 357.203 344.636 357.143 344.673C357.085 344.71 357.055 344.794 357.054 344.925C357.053 345.104 357.107 345.276 357.216 345.442C357.327 345.608 357.467 345.748 357.637 345.863Z" fill="white" fill-opacity="0.85"/>
<path d="M373.494 357.965L372.128 355.033M372.601 353.177C372.591 354.742 371.709 355.42 370.63 354.691C369.552 353.963 368.686 352.104 368.696 350.539C368.706 348.974 369.588 348.296 370.667 349.025C371.745 349.753 372.611 351.613 372.601 353.177Z" stroke="#050110" stroke-width="1.16667" stroke-linejoin="round"/>
<path d="M144.565 435.304L159.111 409.981L228.339 456.747L242.439 501.421" stroke="url(#paint2_linear_2636_361)" stroke-width="24" stroke-linecap="round"/>
<path fill-rule="evenodd" clip-rule="evenodd" d="M154.874 322.759L154.714 347.757L165.254 354.878L165.414 329.879L154.874 322.759ZM138.454 287.564C136.624 286.327 135.128 287.116 135.114 289.325L134.699 354.322C134.685 356.531 136.157 359.325 137.988 360.561L181.674 390.073C183.505 391.31 185 390.521 185.014 388.312L185.429 323.314C185.443 321.105 183.971 318.312 182.14 317.075L138.454 287.564Z" fill="url(#paint3_linear_2636_361)"/>
<path fill-rule="evenodd" clip-rule="evenodd" d="M223.11 368.855L222.95 393.853L233.49 400.974L233.65 375.975L223.11 368.855ZM206.69 333.66C204.859 332.423 203.364 333.211 203.35 335.42L202.935 400.418C202.921 402.627 204.393 405.421 206.224 406.657L249.91 436.169C251.741 437.405 253.236 436.617 253.25 434.408L253.665 369.41C253.679 367.201 252.207 364.408 250.376 363.171L206.69 333.66Z" fill="url(#paint4_linear_2636_361)"/>
<defs>
<linearGradient id="paint0_linear_2636_361" x1="54.826" y1="143.928" x2="63.321" y2="144.335" gradientUnits="userSpaceOnUse">
<stop stop-color="white"/>
<stop offset="1" stop-color="white" stop-opacity="0"/>
</linearGradient>
<linearGradient id="paint1_linear_2636_361" x1="30.7883" y1="125.616" x2="46.5244" y2="125.616" gradientUnits="userSpaceOnUse">
<stop stop-color="#C4C4C4"/>
<stop offset="1" stop-color="#C4C4C4" stop-opacity="0"/>
</linearGradient>
<linearGradient id="paint2_linear_2636_361" x1="250.48" y1="488.776" x2="139.728" y2="488.069" gradientUnits="userSpaceOnUse">
<stop stop-color="#3F3D49"/>
<stop offset="1" stop-color="#252428"/>
</linearGradient>
<linearGradient id="paint3_linear_2636_361" x1="189.303" y1="357.523" x2="132.367" y2="357.159" gradientUnits="userSpaceOnUse">
<stop stop-color="#3F3D49"/>
<stop offset="1" stop-color="#252428"/>
</linearGradient>
<linearGradient id="paint4_linear_2636_361" x1="257.539" y1="403.619" x2="200.603" y2="403.255" gradientUnits="userSpaceOnUse">
<stop stop-color="#3F3D49"/>
<stop offset="1" stop-color="#252428"/>
</linearGradient>
</defs>
</svg>
