<svg width="160" height="34" viewBox="0 0 160 34" fill="none" xmlns="http://www.w3.org/2000/svg">
<path fill-rule="evenodd" clip-rule="evenodd" d="M17.1083 5.72136C15.4492 5.03413 13.6543 4.73779 11.8624 4.85523C10.0704 4.97269 8.32951 5.50078 6.77431 6.39867L5.20517 7.30461L3.3933 4.16635L4.96244 3.26041C6.99901 2.08462 9.27877 1.39304 11.6253 1.23925C13.9719 1.08544 16.3225 1.47351 18.4951 2.37343C20.6677 3.27338 22.6042 4.66102 24.1547 6.42908C25.7052 8.19711 26.8282 10.2982 27.437 12.5697C28.0455 14.8411 28.1236 17.2222 27.6648 19.5287C27.2059 21.8351 26.2228 24.0051 24.7911 25.8708C23.3595 27.7365 21.518 29.2478 19.4089 30.2879C17.2998 31.3279 14.5794 31.8689 12.6281 31.8689C10.6767 31.8689 9.53734 31.5762 8.04104 30.9566C6.5868 30.3542 5.26547 29.4714 4.15242 28.3584C3.03939 27.2453 2.15651 25.9238 1.55413 24.4695C0.951778 23.0154 0.641724 21.4567 0.641724 19.8827C0.641724 18.3086 0.951778 16.75 1.55413 15.2957C2.15651 13.8415 3.03939 12.5201 4.15242 11.4071C5.26547 10.2941 6.5868 9.41118 8.04104 8.80883C9.49528 8.20645 11.0539 7.89642 12.628 7.89642C14.2021 7.89642 15.7607 8.20645 17.2149 8.80883C18.6692 9.41118 19.9905 10.2941 21.1035 11.4071C22.2166 12.5201 23.0994 13.8415 23.7018 15.2957C23.961 15.9213 24.1659 16.5661 24.3156 17.2232C24.3886 15.9758 24.2618 14.7212 23.9368 13.5075C23.4718 11.7729 22.6143 10.1685 21.4302 8.81839C20.2462 7.46823 18.7674 6.40856 17.1083 5.72136ZM5.3909 24.0726C5.59642 20.1769 8.82039 17.0813 12.7674 17.0813C16.5618 17.0813 19.688 19.9422 20.1066 23.6246C20.1953 23.4473 20.2778 23.2666 20.3539 23.0829C20.7742 22.0683 20.9905 20.9809 20.9905 19.8827C20.9905 18.7845 20.7742 17.6971 20.3539 16.6825C19.9337 15.6679 19.3177 14.746 18.5412 13.9695C17.7647 13.193 16.8428 12.577 15.8282 12.1567C14.8136 11.7365 13.7262 11.5202 12.628 11.5202C11.5298 11.5202 10.4424 11.7365 9.42779 12.1567C8.41322 12.577 7.49134 13.193 6.7148 13.9695C5.93828 14.746 5.3223 15.6679 4.90203 16.6825C4.48179 17.6971 4.26548 18.7845 4.26548 19.8827C4.26548 20.9809 4.48179 22.0683 4.90203 23.0829C5.04333 23.4239 5.2067 23.7545 5.3909 24.0726ZM16.5305 24.4681C16.5305 26.5465 14.8457 28.2312 12.7674 28.2312C10.6891 28.2312 9.00423 26.5465 9.00423 24.4681C9.00423 22.3899 10.6891 20.705 12.7674 20.705C14.8457 20.705 16.5305 22.3899 16.5305 24.4681Z" fill="#F67ACB"/>
<path d="M45.6213 17.5289C46.4881 17.9277 47.1556 18.5171 47.6237 19.2972C48.1091 20.06 48.3518 20.9268 48.3518 21.8976C48.3518 23.3365 47.849 24.524 46.8435 25.4602C45.838 26.379 44.5118 26.8384 42.8649 26.8384H34.1535V8.6355H42.0848C43.7317 8.6355 45.0579 9.10358 46.0634 10.0397C47.0689 10.9759 47.5717 12.1721 47.5717 13.6283C47.5717 15.3099 46.9215 16.6101 45.6213 17.5289ZM41.7207 11.834H37.7681V16.2027H41.7207C42.4488 16.2027 43.0296 15.9947 43.463 15.5786C43.9137 15.1625 44.1391 14.6338 44.1391 13.9924C44.1391 13.3509 43.9137 12.8308 43.463 12.4321C43.0296 12.0334 42.4488 11.834 41.7207 11.834ZM37.7681 23.6399H42.2148C42.9429 23.6399 43.5237 23.4405 43.9571 23.0418C44.3905 22.6257 44.6072 22.097 44.6072 21.4556C44.6072 20.8141 44.3905 20.294 43.9571 19.8953C43.5237 19.4792 42.9429 19.2712 42.2148 19.2712H37.7681V23.6399Z" fill="white"/>
<path d="M54.3484 26.8384H50.8378V7.59534H54.3484V26.8384Z" fill="white"/>
<path d="M58.6953 25.0961C57.3258 23.7613 56.641 22.1057 56.641 20.1293C56.641 18.153 57.3258 16.4974 58.6953 15.1625C60.0649 13.8277 61.7725 13.1602 63.8182 13.1602C65.8638 13.1602 67.5714 13.8277 68.941 15.1625C70.3105 16.4974 70.9953 18.153 70.9953 20.1293C70.9953 22.1057 70.3105 23.7613 68.941 25.0961C67.5714 26.431 65.8638 27.0985 63.8182 27.0985C61.7725 27.0985 60.0649 26.431 58.6953 25.0961ZM60.2816 20.1293C60.2816 21.2042 60.6196 22.1057 61.2958 22.8338C61.9719 23.5446 62.8127 23.8999 63.8182 23.8999C64.8237 23.8999 65.6645 23.5446 66.3406 22.8338C67.0167 22.1057 67.3547 21.2042 67.3547 20.1293C67.3547 19.0545 67.0167 18.1617 66.3406 17.4509C65.6645 16.7401 64.8237 16.3847 63.8182 16.3847C62.8127 16.3847 61.9719 16.7488 61.2958 17.4769C60.6196 18.1877 60.2816 19.0718 60.2816 20.1293Z" fill="white"/>
<path d="M83.4296 14.9545V13.4203H86.9401V25.3302C86.9401 27.3065 86.2554 28.9621 84.8858 30.297C83.5162 31.6319 81.8086 32.2993 79.763 32.2993C78.3761 32.2993 77.1366 31.9699 76.0444 31.3111C74.9522 30.6524 74.1114 29.7769 73.522 28.6847L76.6685 27.0204C77.3446 28.4073 78.3761 29.1008 79.763 29.1008C80.7858 29.1008 81.6526 28.7454 82.3634 28.0346C83.0742 27.3238 83.4296 26.4224 83.4296 25.3302V24.8881C82.3201 26.0843 80.8985 26.6824 79.1649 26.6824C77.3273 26.6824 75.793 26.0323 74.5621 24.7321C73.3313 23.4319 72.7159 21.8283 72.7159 19.9213C72.7159 18.0143 73.3313 16.4107 74.5621 15.1105C75.793 13.8103 77.3273 13.1602 79.1649 13.1602C80.8985 13.1602 82.3201 13.7583 83.4296 14.9545ZM77.3706 22.4697C78.0467 23.1458 78.8875 23.4839 79.893 23.4839C80.8985 23.4839 81.7393 23.1458 82.4154 22.4697C83.0915 21.7936 83.4296 20.9441 83.4296 19.9213C83.4296 18.9158 83.0915 18.075 82.4154 17.3989C81.7393 16.7228 80.8985 16.3847 79.893 16.3847C78.8875 16.3847 78.0467 16.7228 77.3706 17.3989C76.6945 18.075 76.3564 18.9158 76.3564 19.9213C76.3564 20.9268 76.6945 21.7763 77.3706 22.4697Z" fill="white"/>
<path d="M97.5177 13.1602C99.3554 13.1602 100.89 13.8277 102.12 15.1625C103.351 16.4974 103.967 18.153 103.967 20.1293C103.967 22.1057 103.351 23.7613 102.12 25.0961C100.89 26.431 99.3554 27.0985 97.5177 27.0985C95.8014 27.0985 94.3799 26.483 93.253 25.2522V26.8384H89.7425V7.59534H93.253V15.0065C94.3799 13.7757 95.8014 13.1602 97.5177 13.1602ZM94.2672 22.8338C94.9433 23.5446 95.7841 23.8999 96.7896 23.8999C97.7951 23.8999 98.6359 23.5446 99.312 22.8338C99.9881 22.1057 100.326 21.2042 100.326 20.1293C100.326 19.0545 99.9881 18.1617 99.312 17.4509C98.6359 16.7401 97.7951 16.3847 96.7896 16.3847C95.7841 16.3847 94.9433 16.7488 94.2672 17.4769C93.5911 18.1877 93.253 19.0718 93.253 20.1293C93.253 21.2042 93.5911 22.1057 94.2672 22.8338Z" fill="white"/>
<path d="M107.732 25.0961C106.363 23.7613 105.678 22.1057 105.678 20.1293C105.678 18.153 106.363 16.4974 107.732 15.1625C109.102 13.8277 110.81 13.1602 112.855 13.1602C114.901 13.1602 116.609 13.8277 117.978 15.1625C119.348 16.4974 120.032 18.153 120.032 20.1293C120.032 22.1057 119.348 23.7613 117.978 25.0961C116.609 26.431 114.901 27.0985 112.855 27.0985C110.81 27.0985 109.102 26.431 107.732 25.0961ZM109.319 20.1293C109.319 21.2042 109.657 22.1057 110.333 22.8338C111.009 23.5446 111.85 23.8999 112.855 23.8999C113.861 23.8999 114.702 23.5446 115.378 22.8338C116.054 22.1057 116.392 21.2042 116.392 20.1293C116.392 19.0545 116.054 18.1617 115.378 17.4509C114.702 16.7401 113.861 16.3847 112.855 16.3847C111.85 16.3847 111.009 16.7488 110.333 17.4769C109.657 18.1877 109.319 19.0718 109.319 20.1293Z" fill="white"/>
<path d="M123.807 25.0961C122.438 23.7613 121.753 22.1057 121.753 20.1293C121.753 18.153 122.438 16.4974 123.807 15.1625C125.177 13.8277 126.884 13.1602 128.93 13.1602C130.976 13.1602 132.683 13.8277 134.053 15.1625C135.423 16.4974 136.107 18.153 136.107 20.1293C136.107 22.1057 135.423 23.7613 134.053 25.0961C132.683 26.431 130.976 27.0985 128.93 27.0985C126.884 27.0985 125.177 26.431 123.807 25.0961ZM125.394 20.1293C125.394 21.2042 125.732 22.1057 126.408 22.8338C127.084 23.5446 127.925 23.8999 128.93 23.8999C129.936 23.8999 130.776 23.5446 131.453 22.8338C132.129 22.1057 132.467 21.2042 132.467 20.1293C132.467 19.0545 132.129 18.1617 131.453 17.4509C130.776 16.7401 129.936 16.3847 128.93 16.3847C127.925 16.3847 127.084 16.7488 126.408 17.4769C125.732 18.1877 125.394 19.0718 125.394 20.1293Z" fill="white"/>
<path d="M137.619 23.2238L141.129 22.4957C141.285 23.7093 142.083 24.316 143.522 24.316C144.232 24.316 144.804 24.186 145.238 23.926C145.671 23.6486 145.888 23.3105 145.888 22.9118C145.888 22.5304 145.689 22.227 145.29 22.0016C144.908 21.7763 144.423 21.6289 143.834 21.5596C143.261 21.4902 142.629 21.3775 141.935 21.2215C141.259 21.0655 140.626 20.8748 140.037 20.6494C139.465 20.4241 138.979 20.034 138.581 19.4792C138.199 18.9245 138.009 18.231 138.009 17.3989C138.009 16.1854 138.529 15.1799 139.569 14.3824C140.626 13.5676 141.944 13.1602 143.522 13.1602C145.099 13.1602 146.399 13.5156 147.422 14.2264C148.445 14.9198 149.052 15.856 149.242 17.0348L145.758 17.763C145.585 16.5494 144.839 15.9427 143.522 15.9427C142.949 15.9427 142.473 16.064 142.091 16.3067C141.727 16.5494 141.545 16.8615 141.545 17.2429C141.545 17.6416 141.736 17.9537 142.117 18.179C142.516 18.4044 143.001 18.5518 143.574 18.6211C144.163 18.6904 144.796 18.8118 145.472 18.9852C146.165 19.1412 146.798 19.3319 147.37 19.5573C147.96 19.7826 148.445 20.1814 148.826 20.7534C149.225 21.3082 149.424 22.0103 149.424 22.8598C149.424 24.056 148.852 25.0615 147.708 25.8763C146.564 26.6911 145.168 27.0985 143.522 27.0985C141.875 27.0985 140.522 26.7517 139.465 26.0583C138.425 25.3475 137.809 24.4027 137.619 23.2238Z" fill="white"/>
<path d="M152.913 16.5148H150.208V13.4203H152.913V9.46764L156.423 8.37546V13.4203H159.908V16.5148H156.423V21.8456C156.423 23.1112 157.056 23.7439 158.322 23.7439H159.908V26.8384H158.322C156.484 26.8384 155.123 26.4137 154.239 25.5642C153.355 24.6974 152.913 23.3885 152.913 21.6376V16.5148Z" fill="white"/>
</svg>
