<svg width="400" height="400" viewBox="0 0 400 400" fill="none" xmlns="http://www.w3.org/2000/svg">
<mask id="mask0_3920_1183" style="mask-type:luminance" maskUnits="userSpaceOnUse" x="40" y="38" width="320" height="321">
<path d="M200 358.667C111.635 358.667 40 287.032 40 198.667C40 110.301 111.635 38.6667 200 38.6667C288.365 38.6667 360 110.301 360 198.667C360 230.375 350.773 259.933 334.863 284.796L314.789 265.635C324.46 252.024 330.147 235.385 330.147 217.417C330.147 185.043 311.685 156.98 284.716 143.183V106.075C284.716 94.292 275.164 84.7413 263.383 84.7413H140C128.219 84.7413 118.667 94.292 118.667 106.075V270.113C118.667 281.895 128.219 291.447 140 291.447H208.512C219.98 297.392 233.004 300.751 246.813 300.751C263.985 300.751 279.945 295.556 293.207 286.652L316.227 308.628C287.063 339.44 245.775 358.667 200 358.667Z" fill="white"/>
</mask>
<g mask="url(#mask0_3920_1183)">
<path d="M200 358.667C111.635 358.667 40 287.032 40 198.667C40 110.301 111.635 38.6667 200 38.6667C288.365 38.6667 360 110.301 360 198.667C360 230.375 350.773 259.933 334.863 284.796L314.789 265.635C324.46 252.024 330.147 235.385 330.147 217.417C330.147 185.043 311.685 156.98 284.716 143.183V106.075C284.716 94.292 275.164 84.7413 263.383 84.7413H140C128.219 84.7413 118.667 94.292 118.667 106.075V270.113C118.667 281.895 128.219 291.447 140 291.447H208.512C219.98 297.392 233.004 300.751 246.813 300.751C263.985 300.751 279.945 295.556 293.207 286.652L316.227 308.628C287.063 339.44 245.775 358.667 200 358.667Z" fill="#F67ACB"/>
</g>
<path d="M140 84.7414H263.383C275.164 84.7414 284.716 94.292 284.716 106.075V270.113C284.716 281.895 275.164 291.447 263.383 291.447H140C128.219 291.447 118.667 281.895 118.667 270.113V106.075C118.667 94.292 128.219 84.7414 140 84.7414Z" fill="white"/>
<path d="M139.867 111.408H193.467C197.075 111.408 200 114.333 200 117.941C200 121.549 197.075 124.475 193.467 124.475H139.867C136.259 124.475 133.333 121.549 133.333 117.941C133.333 114.333 136.259 111.408 139.867 111.408Z" fill="#131A21"/>
<mask id="mask1_3920_1183" style="mask-type:luminance" maskUnits="userSpaceOnUse" x="0" y="0" width="400" height="400">
<path d="M0 400H400V-2.08616e-05H0V400Z" fill="white"/>
</mask>
<g mask="url(#mask1_3920_1183)">
<path d="M139.867 148.475H260.133C263.743 148.475 266.667 151.4 266.667 155.008C266.667 158.616 263.743 161.541 260.133 161.541H139.867C136.259 161.541 133.333 158.616 133.333 155.008C133.333 151.4 136.259 148.475 139.867 148.475Z" fill="#9995A6"/>
</g>
<mask id="mask2_3920_1183" style="mask-type:luminance" maskUnits="userSpaceOnUse" x="0" y="0" width="400" height="400">
<path d="M0 400H400V-2.08616e-05H0V400Z" fill="white"/>
</mask>
<g mask="url(#mask2_3920_1183)">
<path d="M139.867 185.541H260.133C263.743 185.541 266.667 188.467 266.667 192.075C266.667 195.683 263.743 198.608 260.133 198.608H139.867C136.259 198.608 133.333 195.683 133.333 192.075C133.333 188.467 136.259 185.541 139.867 185.541Z" fill="#9995A6"/>
</g>
<mask id="mask3_3920_1183" style="mask-type:luminance" maskUnits="userSpaceOnUse" x="0" y="0" width="400" height="400">
<path d="M0 400H400V-2.08616e-05H0V400Z" fill="white"/>
</mask>
<g mask="url(#mask3_3920_1183)">
<path d="M139.867 222.608H260.133C263.743 222.608 266.667 225.533 266.667 229.141C266.667 232.749 263.743 235.675 260.133 235.675H139.867C136.259 235.675 133.333 232.749 133.333 229.141C133.333 225.533 136.259 222.608 139.867 222.608Z" fill="#9995A6"/>
</g>
<mask id="mask4_3920_1183" style="mask-type:luminance" maskUnits="userSpaceOnUse" x="0" y="0" width="400" height="400">
<path d="M0 400H400V-2.08616e-05H0V400Z" fill="white"/>
</mask>
<g mask="url(#mask4_3920_1183)">
<path d="M139.867 259.675H260.133C263.743 259.675 266.667 262.6 266.667 266.208C266.667 269.816 263.743 272.741 260.133 272.741H139.867C136.259 272.741 133.333 269.816 133.333 266.208C133.333 262.6 136.259 259.675 139.867 259.675Z" fill="#9995A6"/>
</g>
<mask id="mask5_3920_1183" style="mask-type:luminance" maskUnits="userSpaceOnUse" x="0" y="0" width="400" height="400">
<path d="M0 400H400V-2.08616e-05H0V400Z" fill="white"/>
</mask>
<g mask="url(#mask5_3920_1183)">
<path d="M384.2 61.8987H304.092C300.36 61.8987 297.333 65.084 297.333 69.012V108.637C297.333 112.565 300.36 115.751 304.092 115.751H384.2C387.933 115.751 390.959 112.565 390.959 108.637V69.012C390.959 65.084 387.933 61.8987 384.2 61.8987Z" fill="white"/>
</g>
<mask id="mask6_3920_1183" style="mask-type:luminance" maskUnits="userSpaceOnUse" x="0" y="0" width="400" height="400">
<path d="M0 400H400V-2.08616e-05H0V400Z" fill="white"/>
</mask>
<g mask="url(#mask6_3920_1183)">
<path d="M317.333 97.3334C321.752 97.3334 325.333 93.752 325.333 89.3334C325.333 84.9147 321.752 81.3334 317.333 81.3334C312.915 81.3334 309.333 84.9147 309.333 89.3334C309.333 93.752 312.915 97.3334 317.333 97.3334Z" fill="#CEC2DC"/>
</g>
<mask id="mask7_3920_1183" style="mask-type:luminance" maskUnits="userSpaceOnUse" x="0" y="0" width="400" height="400">
<path d="M0 400H400V-2.08616e-05H0V400Z" fill="white"/>
</mask>
<g mask="url(#mask7_3920_1183)">
<path d="M344 81.3334H370.667C375.084 81.3334 378.667 84.916 378.667 89.3334C378.667 93.7507 375.084 97.3334 370.667 97.3334H344C339.583 97.3334 336 93.7507 336 89.3334C336 84.916 339.583 81.3334 344 81.3334Z" fill="#9995A6"/>
</g>
<mask id="mask8_3920_1183" style="mask-type:luminance" maskUnits="userSpaceOnUse" x="0" y="0" width="400" height="400">
<path d="M0 400H400V-2.08616e-05H0V400Z" fill="white"/>
</mask>
<g mask="url(#mask8_3920_1183)">
<path fill-rule="evenodd" clip-rule="evenodd" d="M317.892 217.417C317.892 256.381 286.303 287.969 247.34 287.969C208.376 287.969 176.789 256.381 176.789 217.417C176.789 178.453 208.376 146.867 247.34 146.867C286.303 146.867 317.892 178.453 317.892 217.417ZM246.813 300.751C263.985 300.751 279.945 295.556 293.207 286.652L347.471 338.455L367.153 315.62L314.789 265.635C324.46 252.024 330.147 235.385 330.147 217.417C330.147 171.393 292.836 134.084 246.813 134.084C200.789 134.084 163.48 171.393 163.48 217.417C163.48 263.441 200.789 300.751 246.813 300.751Z" fill="#CEC2DC"/>
</g>
<mask id="mask9_3920_1183" style="mask-type:luminance" maskUnits="userSpaceOnUse" x="283" y="157" width="35" height="122">
<path d="M283.113 278.24C284.147 275.735 284.716 272.991 284.716 270.113V157.569C304.641 170.039 317.892 192.18 317.892 217.417C317.892 243.325 303.927 265.972 283.113 278.24Z" fill="white"/>
</mask>
<g mask="url(#mask9_3920_1183)">
<path d="M283.113 278.24C284.147 275.735 284.716 272.991 284.716 270.113V157.569C304.641 170.039 317.892 192.18 317.892 217.417C317.892 243.325 303.927 265.972 283.113 278.24Z" fill="url(#paint0_linear_3920_1183)"/>
</g>
<mask id="mask10_3920_1183" style="mask-type:luminance" maskUnits="userSpaceOnUse" x="0" y="0" width="400" height="400">
<path d="M0 400H400V-2.08616e-05H0V400Z" fill="white"/>
</mask>
<g mask="url(#mask10_3920_1183)">
<path d="M247.34 287.969C230.797 287.969 215.585 282.276 203.554 272.741H260.133C263.742 272.741 266.666 269.816 266.666 266.208C266.666 262.6 263.742 259.675 260.133 259.675H190.838C185.532 252.588 181.524 244.468 179.174 235.675H260.133C263.742 235.675 266.666 232.749 266.666 229.141C266.666 225.533 263.742 222.608 260.133 222.608H176.977C176.852 220.895 176.789 219.163 176.789 217.417C176.789 210.904 177.672 204.596 179.324 198.608H260.133C263.742 198.608 266.666 195.683 266.666 192.075C266.666 188.467 263.742 185.541 260.133 185.541H184.384C189.157 176.131 195.977 167.937 204.261 161.541H260.133C263.742 161.541 266.666 158.616 266.666 155.008C266.666 151.4 263.742 148.475 260.133 148.475H232.293C237.14 147.421 242.177 146.867 247.34 146.867C261.066 146.867 273.878 150.788 284.716 157.569V270.113C284.716 272.991 284.146 275.735 283.113 278.24C272.625 284.423 260.396 287.969 247.34 287.969Z" fill="white"/>
</g>
<mask id="mask11_3920_1183" style="mask-type:luminance" maskUnits="userSpaceOnUse" x="0" y="0" width="400" height="400">
<path d="M0 400H400V-2.08616e-05H0V400Z" fill="white"/>
</mask>
<g mask="url(#mask11_3920_1183)">
<path opacity="0.85" d="M260.133 161.541H204.261C212.384 155.271 221.912 150.729 232.293 148.475H260.133C263.743 148.475 266.667 151.4 266.667 155.008C266.667 158.616 263.743 161.541 260.133 161.541Z" fill="white"/>
</g>
<path opacity="0.85" d="M260.134 198.608H179.324C180.582 194.052 182.286 189.679 184.384 185.541H260.134C263.743 185.541 266.667 188.467 266.667 192.075C266.667 195.683 263.743 198.608 260.134 198.608Z" fill="white"/>
<path opacity="0.85" d="M260.134 235.675H179.175C178.048 231.461 177.303 227.093 176.978 222.608H260.134C263.743 222.608 266.667 225.533 266.667 229.141C266.667 232.749 263.743 235.675 260.134 235.675Z" fill="white"/>
<path d="M259.898 217.333L277.483 199.816C279.131 198.083 280.034 195.78 279.999 193.396C279.966 191.012 278.998 188.736 277.302 187.049C275.606 185.364 273.315 184.401 270.918 184.368C268.518 184.335 266.2 185.231 264.456 186.868L246.832 204.385L229.247 186.868C228.4 185.979 227.383 185.267 226.255 184.773C225.127 184.281 223.911 184.019 222.679 184.001C221.447 183.984 220.224 184.212 219.083 184.672C217.942 185.133 216.904 185.816 216.032 186.683C215.162 187.548 214.474 188.579 214.011 189.713C213.547 190.848 213.318 192.064 213.335 193.289C213.352 194.513 213.616 195.721 214.112 196.843C214.607 197.964 215.324 198.975 216.22 199.816L233.835 217.333L216.22 234.851C215.324 235.692 214.607 236.703 214.112 237.824C213.616 238.945 213.352 240.153 213.335 241.377C213.318 242.603 213.547 243.817 214.011 244.953C214.474 246.088 215.162 247.119 216.032 247.984C216.904 248.849 217.942 249.533 219.083 249.995C220.224 250.455 221.447 250.683 222.679 250.665C223.911 250.648 225.127 250.385 226.255 249.893C227.383 249.4 228.4 248.688 229.247 247.799L246.871 230.281L264.496 247.799C266.256 249.339 268.54 250.155 270.886 250.079C273.23 250.004 275.456 249.043 277.112 247.392C278.768 245.74 279.728 243.524 279.798 241.195C279.867 238.864 279.039 236.595 277.483 234.851L259.898 217.333Z" fill="#F67ACB"/>
<defs>
<linearGradient id="paint0_linear_3920_1183" x1="198.763" y1="-13.4334" x2="202.04" y2="548.463" gradientUnits="userSpaceOnUse">
<stop stop-color="#F9F9F9"/>
<stop offset="1" stop-color="#F7F7F7"/>
</linearGradient>
</defs>
</svg>
